<svg width="55" height="37" viewBox="0 0 55 37" fill="none" xmlns="http://www.w3.org/2000/svg">
<path id="&#226;&#128;&#156; copy" d="M0.6 37V22.8C0.6 17.3333 1.46667 12.2667 3.2 7.6C5.06667 2.93333 8.2 -1.66667 12.6 -6.20001L20.4 -0.400008C17.4667 2.79999 15.3333 5.79999 14 8.6C12.6667 11.2667 11.8667 13.9333 11.6 16.6H21V37H0.6ZM33.8 37V22.8C33.8 17.3333 34.6667 12.2667 36.4 7.6C38.2667 2.93333 41.4 -1.66667 45.8 -6.20001L53.6 -0.400008C50.6667 2.79999 48.5333 5.79999 47.2 8.6C45.8667 11.2667 45.0667 13.9333 44.8 16.6H54.2V37H33.8Z" fill="#62E0D9"/>
</svg>
